<svg height="512pt" viewBox="-11 0 512 512.00018" width="512pt" xmlns="http://www.w3.org/2000/svg"><path fill="#81e8fb" d="m489.746094 244.820312c-.027344-135.238281-109.683594-244.8476558-244.925782-244.820312-135.238281.0273438-244.8476558 109.6875-244.820312 244.925781.0234375 106.527344 68.910156 200.816407 170.390625 233.21875.96875.304688 1.976563.460938 2.988281.457031 1.929688-.003906 3.820313-.519531 5.480469-1.5 2.160156-1.277343 3.773437-3.308593 4.53125-5.703124l61.839844-196c16.90625-.085938 30.539062-13.863282 30.449219-30.765626-.085938-16.90625-13.859376-30.539062-30.765626-30.453124-4.546874.019531-9.035156 1.066406-13.121093 3.0625l-81.695313-81.707032c-4.054687-3.914062-10.511718-3.800781-14.425781.25-3.820313 3.957032-3.820313 10.222656 0 14.179688l81.652344 81.746094c-6.265625 12.789062-2.683594 28.226562 8.582031 36.945312l-58.921875 186.765625c-116.445313-42.894531-176.070313-172.0625-133.175781-288.507813 42.894531-116.445312 172.0625-176.070312 288.507812-133.175781 116.445313 42.894531 176.070313 172.066407 133.175782 288.507813-20.957032 56.890625-64.015626 102.898437-119.394532 127.574218l-6.367187-29.988281c-1.164063-5.511719-6.582031-9.035156-12.09375-7.867187-1.738281.371094-3.351563 1.1875-4.679688 2.371094l-61.390625 54.808593c-4.210937 3.746094-4.585937 10.195313-.835937 14.40625 1.21875 1.367188 2.78125 2.382813 4.53125 2.941407l78.378906 25.015624c5.363281 1.722657 11.109375-1.226562 12.832031-6.59375.546875-1.695312.636719-3.5.269532-5.242187l-6.257813-29.425781c90.628906-38.207032 149.472656-127.074219 149.261719-225.425782zm-244.871094-10.203124c5.632812 0 10.203125 4.570312 10.203125 10.203124 0 5.636719-4.570313 10.203126-10.203125 10.203126-5.636719 0-10.203125-4.566407-10.203125-10.203126 0-5.632812 4.566406-10.203124 10.203125-10.203124zm33.605469 237.824218 34.945312-31.171875 9.644531 45.445313zm0 0"/><path fill="#81e8fb" d="m234.671875 50.960938v20.40625c0 5.636718 4.566406 10.203124 10.203125 10.203124 5.632812 0 10.203125-4.566406 10.203125-10.203124v-20.40625c0-5.632813-4.570313-10.203126-10.203125-10.203126-5.636719 0-10.203125 4.570313-10.203125 10.203126zm0 0"/><path fill="#81e8fb" d="m51.015625 234.617188c-5.636719 0-10.203125 4.570312-10.203125 10.203124 0 5.636719 4.566406 10.203126 10.203125 10.203126h20.40625c5.636719 0 10.203125-4.566407 10.203125-10.203126 0-5.632812-4.566406-10.203124-10.203125-10.203124zm0 0"/><path fill="#81e8fb" d="m438.730469 255.023438c5.636719 0 10.203125-4.566407 10.203125-10.203126 0-5.632812-4.566406-10.203124-10.203125-10.203124h-20.40625c-5.632813 0-10.203125 4.570312-10.203125 10.203124 0 5.636719 4.570312 10.203126 10.203125 10.203126zm0 0"/></svg>